Coordinates
version=1
nRows=19
nColumns=24
inDegrees=yes

Units are S.I. units (second, meters, Newtons, ...)
Angles are in degrees.

endheader
time	pelvis_tilt	pelvis_list	pelvis_rotation	pelvis_tx	pelvis_ty	pelvis_tz	hip_flexion_r	hip_adduction_r	hip_rotation_r	knee_angle_r	ankle_angle_r	subtalar_angle_r	mtp_angle_r	hip_flexion_l	hip_adduction_l	hip_rotation_l	knee_angle_l	ankle_angle_l	subtalar_angle_l	mtp_angle_l	lumbar_extension	lumbar_bending	lumbar_rotation
      4.13500000	     -8.97085575	     -7.06578709	      9.61272244	     -0.17302119	     -0.03718705	      0.66075188	     30.59455347	      3.55924534	     -3.31789988	    -34.48772483	      4.27592571	     -2.10639735	     16.47309201	     15.02991222	     -6.87178223	      3.04834776	    -62.01204192	    -27.78801383	     14.82425887	     39.24251049	      9.13223600	     13.34703870	    -10.98948012
      4.14000000	     -8.91963830	     -7.06726221	      9.40439864	     -0.16557073	     -0.03602961	      0.66113426	     29.87514705	      3.80703797	     -3.11926960	    -34.13755078	      4.60165876	     -2.10583839	     16.36915407	     16.06252616	     -6.92547102	      2.66532416	    -63.28457886	    -26.59341550	     14.80002385	     39.93526987	      9.01099155	     13.38196039	    -10.57077232
      4.14500000	     -8.90025340	     -7.08844273	      9.19726087	     -0.15804758	     -0.03483344	      0.66153903	     29.14485794	      4.08531468	     -2.85766464	    -33.71043176	      4.88091294	     -2.21712116	     16.10841211	     17.11886184	     -6.99501778	      2.31294243	    -64.46510101	    -25.54950827	     14.54465889	     40.35431228	      8.94913250	     13.42393196	    -10.14994554
      4.15000000	     -8.87986027	     -7.11377740	      8.96073791	     -0.15062457	     -0.03369647	      0.66200925	     28.42404615	      4.37190148	     -2.60547034	    -33.29721793	      5.16608628	     -2.32451017	     15.68322033	     18.19465731	     -7.10660358	      1.87946909	    -65.62461682	    -24.63768838	     13.94201615	     40.22546259	      8.86579548	     13.46737091	     -9.75065719
      4.15500000	     -8.83296151	     -7.13162366	      8.75432908	     -0.14320019	     -0.03253371	      0.66227466	     27.64900814	      4.59862365	     -2.44166336	    -32.85693911	      5.54883847	     -2.18870022	     15.19288771	     19.23824186	     -7.18102649	      1.49690329	    -66.74070438	    -23.71097319	     13.16491810	     39.35064955	      8.76617969	     13.52179473	     -9.32075150
      4.16000000	     -8.78147561	     -7.17471452	      8.58079175	     -0.13575755	     -0.03132122	      0.66256411	     26.83100274	      4.85768839	     -2.23382702	    -32.32075508	      5.77268315	     -2.29930333	     15.00217955	     20.27069441	     -7.28443424	      1.15529608	    -67.71017682	    -23.22167298	     12.04445711	     38.98401717	      8.68451198	     13.58390094	     -9.00950705
      4.16500000	     -8.75063571	     -7.21220164	      8.33986914	     -0.12829286	     -0.03020026	      0.66280771	     26.03052971	      5.11127592	     -1.98821495	    -31.79721845	      6.10698176	     -2.18989921	     14.61543306	     21.30932124	     -7.39186271	      0.75490174	    -68.68592469	    -22.47484309	     10.93242757	     37.46349657	      8.61630298	     13.66514627	     -8.58479573
      4.17000000	     -8.71316899	     -7.24781567	      8.12965766	     -0.12083933	     -0.02904836	      0.66303858	     25.20189903	      5.35534009	     -1.74353247	    -31.22619878	      6.35847661	     -2.21456467	     14.29563080	     22.32662446	     -7.48832868	      0.40041286	    -69.52690154	    -22.00117843	      9.62477531	     36.31227694	      8.54890294	     13.73378769	     -8.21706087
      4.17500000	     -8.67651557	     -7.27491012	      7.91979193	     -0.11339681	     -0.02791915	      0.66324708	     24.36299128	      5.58404852	     -1.48990442	    -30.63563035	      6.58917335	     -2.25450253	     13.98012402	     23.32888975	     -7.57212936	      0.06093253	    -70.28507023	    -21.54393324	      8.28193587	     35.03928811	      8.48084640	     13.79488462	     -7.85323837
      4.18000000	     -8.63954187	     -7.28704179	      7.70525666	     -0.10597855	     -0.02681321	      0.66343481	     23.51710426	      5.79269630	     -1.21644059	    -30.03563985	      6.79752069	     -2.30690624	     13.66316573	     24.31128676	     -7.63773979	     -0.26784634	    -70.95845930	    -21.05934452	      6.96104745	     33.67134599	      8.40670974	     13.84259335	     -7.48375508
      4.18500000	     -8.59903166	     -7.28262053	      7.48953498	     -0.09863370	     -0.02575965	      0.66363194	     22.67422943	      5.97958067	     -0.93235442	    -29.44630104	      6.99514480	     -2.37715529	     13.34996405	     25.27669830	     -7.68420380	     -0.57935745	    -71.55683581	    -20.51146589	      5.71356701	     32.24544299	      8.30819553	     13.87167914	     -7.10825563
      4.19000000	     -8.56726840	     -7.24293787	      7.25969301	     -0.09122462	     -0.02469311	      0.66383127	     21.81636696	      6.12980046	     -0.61034289	    -28.82623274	      7.15977134	     -2.46905718	     13.05662516	     26.20610127	     -7.70116030	     -0.90085243	    -72.03658217	    -19.95967102	      4.55104274	     30.91966854	      8.22443626	     13.86539897	     -6.72707436
      4.19500000	     -8.53279474	     -7.18032136	      7.02820101	     -0.08387012	     -0.02367900	      0.66405041	     20.96374727	      6.25117153	     -0.28074969	    -28.22264496	      7.32624519	     -2.56791988	     12.75755177	     27.11284700	     -7.69560000	     -1.20516555	    -72.43549036	    -19.34083571	      3.52283116	     29.61356536	      8.12224824	     13.83173778	     -6.34052035
      4.20000000	     -8.51826312	     -7.06053283	      6.81874080	     -0.07654540	     -0.02266606	      0.66429523	     20.12057490	      6.31163220	      0.10843034	    -27.60406213	      7.43965503	     -2.77689523	     12.51090017	     28.00529149	     -7.61520906	     -1.46932262	    -72.69596524	    -18.87084850	      2.57564810	     28.81348595	      8.03333636	     13.72038669	     -5.99034485
      4.20500000	     -8.47418738	     -6.95280612	      6.55624913	     -0.06923544	     -0.02173546	      0.66453408	     19.26417271	      6.37398875	      0.43982853	    -27.01898619	      7.64452428	     -2.77972286	     12.15485795	     28.84370457	     -7.59069492	     -1.79271328	    -72.93350063	    -18.06172797	      1.85884535	     27.41793267	      7.89437328	     13.64533064	     -5.55107139
      4.21000000	     -8.48499351	     -6.81981280	      6.34292161	     -0.06200084	     -0.02084658	      0.66479496	     18.46798979	      6.39653458	      0.78731375	    -26.41739399	      7.71309767	     -2.98112796	     11.98928090	     29.72215044	     -7.50522775	     -2.02281126	    -73.00334389	    -17.66257833	      1.10201521	     27.14951890	      7.81690208	     13.51616379	     -5.17941347
      4.21500000	     -8.47733490	     -6.59430092	      6.04089825	     -0.05476036	     -0.01996201	      0.66519261	     17.65075492	      6.35481706	      1.27743180	    -25.84523093	      7.82821626	     -3.15946768	     11.75589344	     30.51086577	     -7.39094861	     -2.37443310	    -72.98357538	    -17.11196413	      0.53846445	     26.57734186	      7.68142007	     13.29841868	     -4.69679974
      4.22000000	     -8.42087607	     -6.42328232	      5.79218567	     -0.04753176	     -0.01915825	      0.66543462	     16.78833727	      6.33135447	      1.66444182	    -25.28117777	      8.05776273	     -3.14354235	     11.28595299	     31.26573719	     -7.31600037	     -2.67016524	    -72.96963475	    -16.20549960	      0.18784502	     25.11492423	      7.51319366	     13.14232738	     -4.30545838
      4.22500000	     -8.47711614	     -6.16428531	      5.52589453	     -0.04036103	     -0.01846990	      0.66581145	     16.06756995	      6.21250833	      2.06846353	    -24.74812358	      8.15930889	     -3.35656322	     11.08936361	     32.08564420	     -7.15555303	     -2.97793258	    -72.77421177	    -15.68580710	     -0.21245337	     24.75708495	      7.44748094	     12.86275220	     -3.90425424
